<?xml version="1.0" encoding="UTF-8" standalone="no"?>
<svg
   width="22"
   height="22"
   version="1.0"
   viewBox="0 0 22 22"
   id="svg133"
   xmlns="http://www.w3.org/2000/svg"
   xmlns:svg="http://www.w3.org/2000/svg">
  <defs
     id="defs3">
    <style
       id="current-color-scheme"
       type="text/css">.ColorScheme-Text { color:#dfdfdf; }</style>
  </defs>
  <g
     id="22-22-audio-volume-medium"
     class="ColorScheme-Text"
     fill="currentColor"
     transform="translate(74,28)">
    <path
       d="m -58.466798,-20.875 a 0.75,0.75 0 0 0 -0.566406,0.0918 0.75,0.75 0 0 0 -0.246094,1.03125 c 0.509388,0.827413 0.779137,1.780305 0.779297,2.75195 -0.0027,0.970313 -0.274912,1.920738 -0.785156,2.746094 a 0.75,0.75 0 0 0 0.24414,1.033203 0.75,0.75 0 0 0 1.033204,-0.244141 c 0.6564,-1.061773 1.004812,-2.284918 1.007812,-3.533203 a 0.750075,0.750075 0 0 0 0,-0.002 c -2.06e-4,-1.249145 -0.347086,-2.473385 -1.001953,-3.537109 A 0.75,0.75 0 0 0 -58.466798,-20.875 Z"
       id="path1347" />
    <path
       d="m -55.25,-22.587891 a 0.75,0.75 0 0 0 -0.333984,1.00586 c 0.712335,1.422674 1.082959,2.990962 1.083984,4.582031 -0.0072,1.588413 -0.383913,3.154169 -1.099609,4.572266 a 0.75,0.75 0 0 0 0.332031,1.007812 0.75,0.75 0 0 0 1.007812,-0.332031 c 0.821086,-1.626916 1.252147,-3.421787 1.259766,-5.244141 a 0.750075,0.750075 0 0 0 0,-0.002 0.750075,0.750075 0 0 0 0,-0.002 c -0.0012,-1.823828 -0.427574,-3.623062 -1.244141,-5.253906 A 0.75,0.75 0 0 0 -55.25,-22.587891 Z"
       id="path1349"
       style="opacity:0.35" />
    <rect
       x="-74"
       y="-28"
       width="22"
       height="22"
       ry="0"
       id="rect1351"
       style="color:#363636;fill:none" />
    <path
       d="m -62.75005,-24.29685 c -0.22873,-0.01291 -0.46234,0.05388 -0.62305,0.18555 L -67.7793,-20.5 H -70.5 c -1.108,0 -2,0.892 -2,2 v 3 c 0,1.108 0.892,2 2,2 h 2.7207 l 4.4062,3.6113 c 0.1607,0.13168 0.39439,0.1984 0.62305,0.18555 0.38109,-0.02151 0.75,-0.26516 0.75,-0.79688 v -13 c 0,-0.53171 -0.36878,-0.77536 -0.75,-0.79688 z"
       id="path1353" />
  </g>
</svg>
