<?xml version="1.0" encoding="UTF-8" standalone="no"?>
<svg
   id="svg1384"
   viewBox="0 0 22 22"
   version="1.1"
   height="22"
   width="22"
   xmlns="http://www.w3.org/2000/svg"
   xmlns:svg="http://www.w3.org/2000/svg">
  <defs
     id="defs5">
    <style
       type="text/css"
       id="current-color-scheme">.ColorScheme-Text {
        color:#dfdfdf;
      }
    </style>
  </defs>
  <g
     id="22-22-network-wired-activated-limited"
     transform="translate(-221,89)">
    <rect
       id="rect4357"
       opacity="0"
       ry="0"
       height="22"
       width="22"
       y="-89"
       x="221" />
    <path
       id="path4359"
       class="ColorScheme-Text"
       d="m 226,-85 c -1.385,0 -2.5,1.115005 -2.5,2.5 v 6.5 c 0,1.384995 1.115,2.5 2.5,2.5 h 5.28125 c 0.0144,-0.0275 0.028,-0.05553 0.043,-0.08203 v -0.002 L 232.11523,-75 H 226 c -0.554,0 -1,-0.446005 -1,-1 v -6.5 c 0,-0.553995 0.446,-1 1,-1 h 2.25 3.25 0.25 c 0.4155,0 0.75,-0.3345 0.75,-0.75 0,-0.4155 -0.3345,-0.75 -0.75,-0.75 h -0.25 -3.25 z m 9,0 c -0.554,0 -1,0.446002 -1,1 v 5 c 0,0.157614 0.0391,0.305152 0.10352,0.4375 l 1.01562,-1.818359 0.002,-0.002 c 0.10669,-0.189679 0.23457,-0.361411 0.37891,-0.515626 V -81 h 0.0996 c 0.52036,-0.501263 1.22075,-0.78125 1.90039,-0.78125 0.92178,0 1.87045,0.525373 2.36719,1.376953 l 0.008,0.01172 0.625,1.117187 V -84 c 0,-0.553998 -0.446,-1 -1,-1 z m 0.5,1.5 h 3.5 v 1 h -3.5 z m -7.75,11 c -0.4155,0 -0.75,0.3345 -0.75,0.75 0,0.4155 0.3345,0.75 0.75,0.75 h 3.53125 c -0.20615,-0.379192 -0.32617,-0.801168 -0.32617,-1.230469 0,-0.09072 0.006,-0.180963 0.0156,-0.269531 z"
       fill="currentColor" />
    <path
       style="fill:#fdbc4b"
       d="m 233.6943,-71 h 7.6114 c 0.747,0 1.2392,-0.5449 1.2392,-1.2305 0,-0.2109 -0.0527,-0.413 -0.167,-0.6152 l -3.8056,-6.8027 c -0.2461,-0.4219 -0.6504,-0.6328 -1.0723,-0.6328 -0.4219,0 -0.835,0.2109 -1.0723,0.6328 l -3.7968,6.8027 c -0.1143,0.2022 -0.1758,0.4043 -0.1758,0.6152 0,0.6856 0.4922,1.2305 1.2392,1.2305 z m 3.8057,-3.4805 c -0.3428,0 -0.5801,-0.2285 -0.5889,-0.5624 l -0.0791,-2.4434 c -0.009,-0.3867 0.2637,-0.6592 0.668,-0.6592 0.4043,0 0.6855,0.2637 0.668,0.6592 l -0.0704,2.4434 c -0.009,0.3339 -0.2548,0.5624 -0.5976,0.5624 z m 0,2.1534 c -0.4395,0 -0.7998,-0.3428 -0.7998,-0.791 0,-0.4307 0.3603,-0.7735 0.7998,-0.7735 0.4482,0 0.7998,0.3516 0.7998,0.7735 0,0.4482 -0.3516,0.791 -0.7998,0.791 z"
       id="path4367" />
  </g>
</svg>
