<?xml version="1.0" encoding="UTF-8" standalone="no"?>
<svg
   id="svg1384"
   viewBox="0 0 22 22"
   version="1.1"
   xmlns="http://www.w3.org/2000/svg"
   xmlns:svg="http://www.w3.org/2000/svg">
  <defs
     id="defs5">
    <style
       type="text/css"
       id="current-color-scheme">.ColorScheme-Text {
        color:#dfdfdf;
      }
      </style>
  </defs>
  <g
     id="22-22-network-unavailable"
     transform="translate(-93,89)">
    <rect
       id="rect4308"
       opacity="0"
       ry="0"
       y="-89"
       x="93" />
    <path
       id="path4310"
       d="m 98,-85 c -1.385,0 -2.5,1.115004 -2.5,2.5 v 6.5 c 0,1.384996 1.115,2.5 2.5,2.5 h 8 0.25 c 0.4155,0 0.75,-0.3345 0.75,-0.75 0,-0.4155 -0.3345,-0.75 -0.75,-0.75 H 106 98 c -0.554,0 -1,-0.446004 -1,-1 v -6.5 c 0,-0.553996 0.446,-1 1,-1 h 2.25 3.25 0.25 c 0.4155,0 0.75,-0.3345 0.75,-0.75 0,-0.4155 -0.3345,-0.75 -0.75,-0.75 h -0.25 -3.25 z m 9,0 c -0.554,0 -1,0.446001 -1,1 v 5 c 0,0.553998 0.446,1 1,1 h 1.5 v 6.25 c 0,0.4155 0.3345,0.75 0.75,0.75 0.4155,0 0.75,-0.3345 0.75,-0.75 V -78 h 1.5 c 0.554,0 1,-0.446002 1,-1 v -5 c 0,-0.553999 -0.446,-1 -1,-1 z m 0.5,1.5 h 3.5 v 1 h -3.5 z m 0,2.5 h 3.5 v 1.5 h -3.5 z m -7.75,8.5 c -0.4155,0 -0.75,0.3345 -0.75,0.75 0,0.4155 0.3345,0.75 0.75,0.75 h 6.5 c 0.4155,0 0.75,-0.3345 0.75,-0.75 0,-0.4155 -0.3345,-0.75 -0.75,-0.75 z"
       class="ColorScheme-Text"
       fill="currentColor"
       style="opacity:0.35" />
    <circle
       id="path1"
       style="fill:#dfdfdf;fill-opacity:1;stroke:none;stroke-width:0.333333"
       cx="104.5"
       cy="-79.5"
       r="0.5" />
    <circle
       id="path2"
       style="fill:#dfdfdf;fill-opacity:1;stroke:none;stroke-width:0.333333"
       cx="98.5"
       cy="-79.5"
       r="0.5" />
    <circle
       id="path3"
       style="fill:#dfdfdf;fill-opacity:1;stroke:none;stroke-width:0.333333"
       cx="101.5"
       cy="-79.5"
       r="0.5" />
  </g>
</svg>
