<?xml version="1.0" encoding="UTF-8" standalone="no"?>
<svg
   id="svg1384"
   viewBox="0 0 22 22"
   version="1.1"
   sodipodi:docname="network-wired-offline.svg"
   inkscape:version="1.3.2 (091e20ef0f, 2023-11-25)"
   xmlns:inkscape="http://www.inkscape.org/namespaces/inkscape"
   xmlns:sodipodi="http://sodipodi.sourceforge.net/DTD/sodipodi-0.dtd"
   xmlns="http://www.w3.org/2000/svg"
   xmlns:svg="http://www.w3.org/2000/svg">
  <sodipodi:namedview
     id="namedview1"
     pagecolor="#ffffff"
     bordercolor="#000000"
     borderopacity="0.25"
     inkscape:showpageshadow="2"
     inkscape:pageopacity="0.0"
     inkscape:pagecheckerboard="0"
     inkscape:deskcolor="#d1d1d1"
     inkscape:zoom="13.049334"
     inkscape:cx="9.4640843"
     inkscape:cy="28.583834"
     inkscape:window-width="1920"
     inkscape:window-height="1018"
     inkscape:window-x="0"
     inkscape:window-y="0"
     inkscape:window-maximized="1"
     inkscape:current-layer="svg1384" />
  <defs
     id="defs5">
    <style
       type="text/css"
       id="current-color-scheme">.ColorScheme-Text {
        color:#dfdfdf;
      }
      </style>
  </defs>
  <g
     id="22-22-network-unavailable"
     transform="translate(-93,89)">
    <rect
       id="rect4308"
       opacity="0"
       ry="0"
       y="-89"
       x="93" />
    <path
       id="path4310"
       d="m 98,-85 c -1.385,0 -2.5,1.115004 -2.5,2.5 v 6.5 c 0,1.384996 1.115,2.5 2.5,2.5 h 8 0.25 c 0.4155,0 0.75,-0.3345 0.75,-0.75 0,-0.4155 -0.3345,-0.75 -0.75,-0.75 H 106 98 c -0.554,0 -1,-0.446004 -1,-1 v -6.5 c 0,-0.553996 0.446,-1 1,-1 h 2.25 3.25 0.25 c 0.4155,0 0.75,-0.3345 0.75,-0.75 0,-0.4155 -0.3345,-0.75 -0.75,-0.75 h -0.25 -3.25 z m 9,0 c -0.554,0 -1,0.446001 -1,1 v 5 c 0,0.553998 0.446,1 1,1 h 1.5 v 6.25 c 0,0.4155 0.3345,0.75 0.75,0.75 0.4155,0 0.75,-0.3345 0.75,-0.75 V -78 h 1.5 c 0.554,0 1,-0.446002 1,-1 v -5 c 0,-0.553999 -0.446,-1 -1,-1 z m 0.5,1.5 h 3.5 v 1 h -3.5 z m 0,2.5 h 3.5 v 1.5 h -3.5 z m -7.75,8.5 c -0.4155,0 -0.75,0.3345 -0.75,0.75 0,0.4155 0.3345,0.75 0.75,0.75 h 6.5 c 0.4155,0 0.75,-0.3345 0.75,-0.75 0,-0.4155 -0.3345,-0.75 -0.75,-0.75 z"
       class="ColorScheme-Text"
       fill="currentColor"
       style="opacity:0.35" />
    <rect
       id="rect4316"
       width="26"
       height="1.5"
       x="5.3847766"
       y="-129.44344"
       rx="0.75"
       ry="0.75"
       transform="rotate(45)"
       class="ColorScheme-Text"
       fill="currentColor" />
  </g>
</svg>
