<?xml version="1.0" encoding="UTF-8" standalone="no"?>
<svg
   width="15.999998"
   height="16"
   version="1.0"
   viewBox="0 0 15.999998 16"
   id="svg133"
   xmlns="http://www.w3.org/2000/svg"
   xmlns:svg="http://www.w3.org/2000/svg">
  <defs
     id="defs3">
    <style
       id="current-color-scheme"
       type="text/css">.ColorScheme-Text { color:#dfdfdf; }</style>
  </defs>
  <g
     id="16-16-audio-volume-medium"
     transform="translate(-5.0000008,30)">
    <rect
       id="rect1370"
       width="16"
       height="16"
       x="5"
       y="-30"
       rx="0"
       ry="0"
       style="fill:none" />
    <g
       id="g1378"
       class="ColorScheme-Text"
       fill="currentColor"
       transform="translate(-0.66610098,0.19351387)">
      <path
         id="path1372"
         d="m 13.621094,-27.193359 -2.955078,3 H 7.6660156 c -0.5539999,0 -1,0.446 -1,1 v 3 c 0,0.554 0.4460001,1 1,1 h 3.0000004 l 2.955078,3 z" />
      <path
         id="path1374"
         d="m 18.3953,-26.780311 c -0.58741,-0.53488 -1.1988,0.22518 -0.68359,0.73242 1.2147,1.1326 1.9056,2.7181 1.9082,4.3789 -0.0019,1.6654 -0.69594,3.255099 -1.916,4.388699 -0.46835,0.44623 0.17346,1.1467 0.67969,0.72852 1.423,-1.3216 2.233,-3.175099 2.2363,-5.117199 -0.0019,-1.9383 -0.80739,-3.789 -2.2246,-5.1113 z"
         style="opacity:0.35" />
      <path
         id="path1376"
         d="m 16.0305,-25.327277 c -0.52095,-0.49369 -1.1551,0.22003 -0.68359,0.73047 0.81045,0.75501 1.2715,1.8123 1.2734,2.9199 -0.0013,1.1103 -0.46396,2.1701 -1.2773,2.9258 -0.47259,0.42993 0.13957,1.1522 0.67969,0.73047 1.0168,-0.94425 1.5955,-2.2686 1.5977,-3.6562 -0.0017,-1.3844 -0.57738,-2.7062 -1.5898,-3.6504 z" />
    </g>
  </g>
</svg>
