<?xml version="1.0" encoding="UTF-8" standalone="no"?>
<svg
   width="16"
   height="16"
   viewBox="0 0 16 16"
   id="svg2"
   version="1.1"
   xmlns="http://www.w3.org/2000/svg"
   xmlns:svg="http://www.w3.org/2000/svg">
  <defs
     id="defs4">
    <style
       type="text/css"
       id="current-color-scheme">
      .ColorScheme-Text {
        color:#dfdfdf;
      }
      </style>
  </defs>
  <g
     id="layer1"
     transform="matrix(0.72727273,0,0,0.72727273,-16.466652,-206.21516)">
    <g
       id="down-arrow">
      <rect
         id="rect1153"
         width="22"
         height="22"
         x="22.641647"
         y="283.54584"
         rx="0"
         ry="0"
         style="fill:none" />
      <path
         id="path1155"
         d="m 37.180111,302.54584 c 1.917692,0 3.461538,-1.54385 3.461538,-3.46154 0,-1.91769 -1.543846,-3.46154 -3.461538,-3.46154 h -8.076924 c -1.917692,0 -3.461538,1.54385 -3.461538,3.46154 0,1.91769 1.543846,3.46154 3.461538,3.46154 z m 0,-2.30769 c -0.637255,0 -1.153851,-0.51659 -1.153847,-1.15385 -4e-6,-0.63726 0.516592,-1.15384 1.153847,-1.15384 0.637254,0 1.15385,0.51658 1.153846,1.15384 4e-6,0.63726 -0.516592,1.15385 -1.153846,1.15385 z m 0,-5.76923 c 1.917692,0 3.461538,-1.54385 3.461538,-3.46154 0,-1.91769 -1.543846,-3.46154 -3.461538,-3.46154 h -8.076924 c -1.917692,0 -3.461538,1.54385 -3.461538,3.46154 0,1.91769 1.543846,3.46154 3.461538,3.46154 z m 0,-1.15385 h -8.076924 c -1.278455,0 -2.307692,-1.02923 -2.307692,-2.30769 0,-1.27846 1.029237,-2.30769 2.307692,-2.30769 h 8.076924 c 1.278456,0 2.307692,1.02923 2.307692,2.30769 0,1.27846 -1.029236,2.30769 -2.307692,2.30769 z m -8.079177,-1.15385 c 0.637252,0 1.153846,-0.5166 1.153846,-1.15384 0,-0.63725 -0.516594,-1.15385 -1.153846,-1.15385 -0.637252,0 -1.153846,0.5166 -1.153846,1.15385 0,0.63724 0.516594,1.15384 1.153846,1.15384 z"
         class="ColorScheme-Text"
         fill="currentColor"
         style="stroke-width:1.15385" />
    </g>
  </g>
</svg>
