<?xml version="1.0" encoding="UTF-8" standalone="no"?>
<svg
   id="svg1384"
   viewBox="0 0 24 24"
   version="1.1"
   width="24"
   height="24"
   xmlns="http://www.w3.org/2000/svg"
   xmlns:svg="http://www.w3.org/2000/svg">
  <defs
     id="defs5">
    <style
       type="text/css"
       id="current-color-scheme">.ColorScheme-Text {
        color:#dfdfdf;
      }
      </style>
  </defs>
  <g
     id="22-22-network-unavailable"
     transform="matrix(1.0909091,0,0,1.0909091,-101.45455,97.090909)">
    <rect
       id="rect4308"
       opacity="0"
       ry="0"
       height="22"
       width="22"
       y="-89"
       x="93" />
    <path
       id="path4310"
       d="m 98,-85 c -1.385,0 -2.5,1.115004 -2.5,2.5 v 6.5 c 0,1.384996 1.115,2.5 2.5,2.5 h 8 0.25 c 0.4155,0 0.75,-0.3345 0.75,-0.75 0,-0.4155 -0.3345,-0.75 -0.75,-0.75 H 106 98 c -0.554,0 -1,-0.446004 -1,-1 v -6.5 c 0,-0.553996 0.446,-1 1,-1 h 2.25 3.25 0.25 c 0.4155,0 0.75,-0.3345 0.75,-0.75 0,-0.4155 -0.3345,-0.75 -0.75,-0.75 h -0.25 -3.25 z m 9,0 c -0.554,0 -1,0.446001 -1,1 v 5 c 0,0.553998 0.446,1 1,1 h 1.5 v 6.25 c 0,0.4155 0.3345,0.75 0.75,0.75 0.4155,0 0.75,-0.3345 0.75,-0.75 V -78 h 1.5 c 0.554,0 1,-0.446002 1,-1 v -5 c 0,-0.553999 -0.446,-1 -1,-1 z m 0.5,1.5 h 3.5 v 1 h -3.5 z m 0,2.5 h 3.5 v 1.5 h -3.5 z m -7.75,8.5 c -0.4155,0 -0.75,0.3345 -0.75,0.75 0,0.4155 0.3345,0.75 0.75,0.75 h 6.5 c 0.4155,0 0.75,-0.3345 0.75,-0.75 0,-0.4155 -0.3345,-0.75 -0.75,-0.75 z"
       class="ColorScheme-Text"
       fill="currentColor"
       style="opacity:0.35" />
    <text
       xml:space="preserve"
       style="font-style:normal;font-variant:normal;font-weight:normal;font-stretch:normal;font-size:21.2234px;font-family:sans-serif;-inkscape-font-specification:'sans-serif, ';font-variant-ligatures:normal;font-variant-caps:normal;font-variant-numeric:normal;font-variant-east-asian:normal;stroke-width:0.114079"
       x="5.2883916"
       y="18.658878"
       class="ColorScheme-Text"
       fill="currentColor"
       id="text1"
       transform="translate(93,-89)"><tspan
         id="tspan1"
         x="5.2883916"
         y="18.658878"
         style="font-style:normal;font-variant:normal;font-weight:normal;font-stretch:normal;font-size:21.2234px;font-family:sans-serif;-inkscape-font-specification:'sans-serif, ';font-variant-ligatures:normal;font-variant-caps:normal;font-variant-numeric:normal;font-variant-east-asian:normal;stroke-width:0.114079">?</tspan></text>
  </g>
</svg>
