<?xml version="1.0" encoding="UTF-8" standalone="no"?>
<svg
   id="svg1384"
   viewBox="0 0 24 24"
   version="1.1"
   width="24"
   height="24"
   xmlns="http://www.w3.org/2000/svg"
   xmlns:svg="http://www.w3.org/2000/svg">
  <defs
     id="defs5">
    <style
       type="text/css"
       id="current-color-scheme">.ColorScheme-Text {
        color:#dfdfdf;
      }
    </style>
  </defs>
  <g
     id="16-16-network-wired"
     transform="matrix(1.0909091,0,0,1.0909091,-138.54545,97.090908)">
    <rect
       id="rect1652"
       opacity="0"
       ry="0"
       height="22"
       width="22"
       y="-89"
       x="127" />
    <path
       id="rect4216"
       d="m 132,-85 c -1.385,0 -2.5,1.115004 -2.5,2.5 v 6.5 c 0,1.384996 1.115,2.5 2.5,2.5 h 8 0.25 c 0.4155,0 0.75,-0.3345 0.75,-0.75 0,-0.4155 -0.3345,-0.75 -0.75,-0.75 H 140 132 c -0.554,0 -1,-0.446004 -1,-1 v -6.5 c 0,-0.553996 0.446,-1 1,-1 h 2.25 3.25 0.25 c 0.4155,0 0.75,-0.3345 0.75,-0.75 0,-0.4155 -0.3345,-0.75 -0.75,-0.75 h -0.25 -3.25 z m 9,0 c -0.554,0 -1,0.446001 -1,1 v 5 c 0,0.553998 0.446,1 1,1 h 1.5 v 6.25 c 0,0.4155 0.3345,0.75 0.75,0.75 0.4155,0 0.75,-0.3345 0.75,-0.75 V -78 h 1.5 c 0.554,0 1,-0.446002 1,-1 v -5 c 0,-0.553999 -0.446,-1 -1,-1 z m 0.5,1.5 h 3.5 v 1 h -3.5 z m 0,2.5 h 3.5 v 1.5 h -3.5 z m -7.75,8.5 c -0.4155,0 -0.75,0.3345 -0.75,0.75 0,0.4155 0.3345,0.75 0.75,0.75 h 6.5 c 0.4155,0 0.75,-0.3345 0.75,-0.75 0,-0.4155 -0.3345,-0.75 -0.75,-0.75 z"
       class="ColorScheme-Text"
       fill="currentColor" />
  </g>
</svg>
