<?xml version="1.0" encoding="UTF-8" standalone="no"?>
<svg
   id="svg1384"
   viewBox="0 0 24 24"
   version="1.1"
   width="24"
   height="24"
   xmlns="http://www.w3.org/2000/svg"
   xmlns:svg="http://www.w3.org/2000/svg">
  <defs
     id="defs5">
    <style
       type="text/css"
       id="current-color-scheme">.ColorScheme-Text {
        color:#dfdfdf;
      }
      </style>
  </defs>
  <g
     id="22-22-network-wired-activated-locked"
     transform="matrix(1.0909091,0,0,1.0909091,-276,97.090909)">
    <rect
       id="rect4381"
       opacity="0"
       ry="0"
       height="22"
       width="22"
       y="-89"
       x="253" />
    <path
       id="path4383"
       class="ColorScheme-Text"
       d="m 258,-85 c -1.385,0 -2.5,1.115005 -2.5,2.5 v 6.5 c 0,1.384995 1.115,2.5 2.5,2.5 h 6.5 V -75 H 258 c -0.554,0 -1,-0.446005 -1,-1 v -6.5 c 0,-0.553995 0.446,-1 1,-1 h 2.25 3.25 0.25 c 0.4155,0 0.75,-0.3345 0.75,-0.75 0,-0.4155 -0.3345,-0.75 -0.75,-0.75 h -0.25 -3.25 z m 9,0 c -0.554,0 -1,0.446002 -1,1 v 4.396484 c 0.65101,-1.127449 1.87007,-1.896484 3.25,-1.896484 1.37993,0 2.59899,0.769035 3.25,1.896484 V -84 c 0,-0.553998 -0.446,-1 -1,-1 z m 0.5,1.5 h 3.5 v 1 h -3.5 z m -7.75,11 c -0.4155,0 -0.75,0.3345 -0.75,0.75 0,0.4155 0.3345,0.75 0.75,0.75 h 4.9668 c -0.13819,-0.307791 -0.2168,-0.646438 -0.2168,-1 v -0.5 z"
       fill="currentColor" />
    <path
       d="m 269.25,-80 c -1.2465,0 -2.25,1.0035 -2.25,2.25 v 1.25 c -0.554,0 -1,0.446 -1,1 v 3.5 c 0,0.554 0.446,1 1,1 h 4.5 c 0.554,0 1,-0.446 1,-1 v -3.5 c 0,-0.554 -0.446,-1 -1,-1 v -1.25 c 0,-1.2465 -1.0035,-2.25 -2.25,-2.25 z m 0,1 c 0.6925,0 1.25,0.5575 1.25,1.25 v 1.25 H 268 v -1.25 c 0,-0.6925 0.5575,-1.25 1.25,-1.25 z"
       id="path4413"
       fill="currentColor"
       class="ColorScheme-Text" />
  </g>
</svg>
