<?xml version="1.0" encoding="UTF-8" standalone="no"?>
<svg
   id="svg1384"
   viewBox="0 0 16 16"
   version="1.1"
   height="16"
   width="16"
   xmlns="http://www.w3.org/2000/svg"
   xmlns:svg="http://www.w3.org/2000/svg">
  <defs
     id="defs5">
    <style
       type="text/css"
       id="current-color-scheme">.ColorScheme-Text {
        color:#dfdfdf;
      }
      </style>
  </defs>
  <g
     id="network-unavailable"
     transform="matrix(0.5,0,0,0.5,-45,76.5)">
    <rect
       id="rect2080"
       width="32"
       height="1.5"
       x="-37.920311"
       y="-172.57695"
       rx="0.75"
       ry="0.75"
       transform="rotate(45)"
       class="ColorScheme-Text"
       fill="currentColor" />
    <rect
       id="rect2134"
       x="90"
       y="-153"
       rx="0"
       ry="0"
       style="fill:none" />
    <path
       id="path2136"
       d="m 97.5,-146 c -1.38499,0 -2.5,1.115 -2.5,2.5 v 10 c 0,1.385 1.11501,2.5 2.5,2.5 h 12.5 0.2832 c 0.39662,0 0.7168,-0.3345 0.7168,-0.75 0,-0.4155 -0.32018,-0.75 -0.7168,-0.75 H 110 97.5 c -0.55399,0 -1,-0.446 -1,-1 v -10 c 0,-0.554 0.44601,-1 1,-1 h 0.7168 8.7832 0.2832 c 0.39662,0 0.7168,-0.3345 0.7168,-0.75 0,-0.4155 -0.32018,-0.75 -0.7168,-0.75 H 107 98.2168 Z m 13.5,0 c -0.831,0 -1.5,0.669 -1.5,1.5 v 5 c 0,0.831 0.669,1.5 1.5,1.5 h 1.5 v 9.25 c 0,0.4155 0.3345,0.75 0.75,0.75 0.4155,0 0.75,-0.3345 0.75,-0.75 V -138 h 1.5 c 0.831,0 1.5,-0.669 1.5,-1.5 v -5 c 0,-0.831 -0.669,-1.5 -1.5,-1.5 z m 0,1.5 h 4.5 v 1.5 H 111 Z m 0,3 h 4.5 v 2 H 113.25 111 Z m -9.7832,12 c -0.39662,0 -0.7168,0.3345 -0.7168,0.75 0,0.4155 0.32018,0.75 0.7168,0.75 h 9.0664 c 0.39662,0 0.7168,-0.3345 0.7168,-0.75 0,-0.4155 -0.32018,-0.75 -0.7168,-0.75 z"
       class="ColorScheme-Text"
       fill="currentColor"
       style="opacity:0.35" />
  </g>
</svg>
