<?xml version="1.0" encoding="UTF-8" standalone="no"?>
<svg
   id="svg1384"
   viewBox="0 0 16 16"
   version="1.1"
   xmlns="http://www.w3.org/2000/svg"
   xmlns:svg="http://www.w3.org/2000/svg">
  <defs
     id="defs5">
    <style
       type="text/css"
       id="current-color-scheme">.ColorScheme-Text {
        color:#dfdfdf;
      }
      </style>
  </defs>
  <g
     id="network-wired-activated-limited"
     transform="matrix(0.5,0,0,0.5,-125,76.499999)">
    <rect
       id="rect3320"
       x="250"
       y="-153"
       rx="0"
       ry="0"
       style="fill:none" />
    <path
       id="path3322"
       class="ColorScheme-Text"
       d="m 257.5,-146 c -1.38499,0 -2.5,1.115 -2.5,2.5 v 10 c 0,1.385 1.11501,2.5 2.5,2.5 h 10.05664 l 0.83789,-1.5 H 257.5 c -0.55399,0 -1,-0.446 -1,-1 v -10 c 0,-0.554 0.44601,-1 1,-1 h 0.7168 8.7832 0.2832 c 0.39662,0 0.7168,-0.3345 0.7168,-0.75 0,-0.4155 -0.32018,-0.75 -0.7168,-0.75 H 267 258.2168 Z m 13.5,0 c -0.831,0 -1.5,0.669 -1.5,1.5 v 5 c 0,0.831 0.669,1.5 1.5,1.5 h 0.59961 c 0.52036,-0.50126 1.22075,-0.78125 1.90039,-0.78125 0.6813,0 1.37719,0.28766 1.89453,0.78125 H 275.5 c 0.831,0 1.5,-0.669 1.5,-1.5 v -5 c 0,-0.831 -0.669,-1.5 -1.5,-1.5 z m 0,1.5 h 4.5 v 1.5 H 271 Z m 0,3 h 4.5 v 2 H 273.25 271 Z m -9.7832,12 c -0.39662,0 -0.7168,0.3345 -0.7168,0.75 0,0.4155 0.32018,0.75 0.7168,0.75 h 6.06445 c -0.20615,-0.37919 -0.32617,-0.80117 -0.32617,-1.23047 0,-0.0907 0.006,-0.18096 0.0156,-0.26953 z"
       fill="currentColor" />
    <path
       d="m 269.6943,-128 h 7.6114 c 0.747,0 1.2392,-0.5449 1.2392,-1.2305 0,-0.2109 -0.0527,-0.413 -0.167,-0.6152 l -3.8056,-6.8027 c -0.2461,-0.4219 -0.6504,-0.6328 -1.0723,-0.6328 -0.4219,0 -0.835,0.2109 -1.0723,0.6328 l -3.7968,6.8027 c -0.1143,0.2022 -0.1758,0.4043 -0.1758,0.6152 0,0.6856 0.4922,1.2305 1.2392,1.2305 z m 3.8057,-3.4805 c -0.3428,0 -0.5801,-0.2285 -0.5889,-0.5624 l -0.0791,-2.4434 c -0.009,-0.3867 0.2637,-0.6592 0.668,-0.6592 0.4043,0 0.6855,0.2637 0.668,0.6592 l -0.0704,2.4434 c -0.009,0.3339 -0.2548,0.5624 -0.5976,0.5624 z m 0,2.1534 c -0.4395,0 -0.7998,-0.3428 -0.7998,-0.791 0,-0.4307 0.3603,-0.7735 0.7998,-0.7735 0.4482,0 0.7998,0.3516 0.7998,0.7735 0,0.4482 -0.3516,0.791 -0.7998,0.791 z"
       id="path3330"
       style="fill:#fdbc4b;fill-opacity:1" />
  </g>
</svg>
