<?xml version="1.0" encoding="UTF-8" standalone="no"?>
<svg
   id="svg30"
   viewBox="0 0 48 48"
   version="1.1"
   width="48"
   height="48"
   xmlns="http://www.w3.org/2000/svg"
   xmlns:svg="http://www.w3.org/2000/svg">
  <defs
     id="defs3">
    <style
       type="text/css"
       id="current-color-scheme">.ColorScheme-Text { color:#dfdfdf; }</style>
  </defs>
  <g
     id="16-16-kdeconnect"
     transform="matrix(3,0,0,3,57,-37.5)">
    <path
       id="path4566"
       fill="currentColor"
       d="m -11.375002,17 -0.208006,0.830554 c -0.189098,0.0504 -0.370809,0.125251 -0.540535,0.222661 l -0.732424,-0.439457 -0.530275,0.530275 0.439457,0.732424 c -0.09854,0.170041 -0.174383,0.352254 -0.225586,0.541998 L -14,19.624998 v 0.750004 l 0.830554,0.208006 c 0.0504,0.189098 0.125251,0.370809 0.222661,0.540535 l -0.439457,0.732424 0.530275,0.530275 0.732424,-0.439457 c 0.170041,0.09854 0.352254,0.174383 0.541998,0.225586 L -11.375002,23 h 0.750004 l 0.208006,-0.830554 c 0.189098,-0.0504 0.370809,-0.125251 0.540535,-0.222661 l 0.732424,0.439457 0.530275,-0.530275 -0.439457,-0.732424 c 0.09854,-0.170041 0.174383,-0.352254 0.225586,-0.541998 L -8,20.375002 v -0.750004 l -0.830554,-0.208006 c -0.0504,-0.189098 -0.125251,-0.370809 -0.222661,-0.540535 l 0.439457,-0.732424 -0.530275,-0.530275 -0.732424,0.439457 c -0.170041,-0.09854 -0.352254,-0.174383 -0.541998,-0.225586 L -10.624998,17 Z M -11,18.500008 c 0.04988,1.5e-5 0.09976,0.0023 0.149416,0.0075 0.04965,0.0045 0.09902,0.01222 0.147945,0.02197 0.04943,0.0102 0.09833,0.02295 0.146491,0.0381 0.0477,0.01478 0.09464,0.03187 0.140626,0.0513 0.04598,0.0192 0.09094,0.04073 0.134761,0.06442 0.0438,0.02423 0.08631,0.05063 0.127448,0.0791 0.04155,0.02828 0.08162,0.05858 0.120113,0.09082 0.03833,0.03233 0.075,0.06653 0.109868,0.102541 0.0345,0.03547 0.06728,0.0726 0.09815,0.11133 0.03135,0.03953 0.06068,0.08058 0.08789,0.123046 0.02708,0.04215 0.05197,0.0857 0.0747,0.130373 0.02228,0.0444 0.0423,0.08985 0.06008,0.136231 0.01853,0.0465 0.03465,0.09394 0.04838,0.142088 0.0132,0.04823 0.02392,0.09716 0.03225,0.146491 0.0083,0.0495 0.01418,0.09934 0.01755,0.149408 0.003,0.0351 0.0045,0.07028 0.0045,0.105443 -1.5e-5,0.04988 -0.0022,0.09976 -0.0075,0.149416 -0.0045,0.04965 -0.01223,0.09902 -0.02197,0.147945 -0.0102,0.04943 -0.02295,0.09833 -0.0381,0.146491 -0.01478,0.0477 -0.03187,0.09464 -0.0513,0.140626 -0.0192,0.04597 -0.04072,0.09094 -0.06442,0.134761 -0.02422,0.0438 -0.05062,0.08631 -0.0791,0.127448 -0.02828,0.04155 -0.05858,0.08162 -0.09083,0.120113 -0.03233,0.03833 -0.06653,0.075 -0.102541,0.109868 -0.03547,0.0345 -0.0726,0.06728 -0.111323,0.09815 -0.03952,0.03135 -0.08058,0.06068 -0.123053,0.08789 -0.04215,0.02707 -0.08569,0.05198 -0.130366,0.0747 -0.0444,0.02228 -0.08985,0.0423 -0.13623,0.06008 -0.0465,0.01845 -0.09395,0.03458 -0.142096,0.0483 -0.04822,0.0132 -0.09715,0.02393 -0.146483,0.03225 -0.0495,0.0083 -0.09935,0.01418 -0.149416,0.01755 -0.02092,0.003 -0.04192,0.0053 -0.063,0.0075 h -0.102541 c -0.02985,-0.0015 -0.05963,-0.0038 -0.08935,-0.0075 -0.04965,-0.0045 -0.09903,-0.01223 -0.147953,-0.02198 -0.04943,-0.0102 -0.09833,-0.02295 -0.146484,-0.0381 -0.0477,-0.01478 -0.09464,-0.03187 -0.140625,-0.0513 -0.04598,-0.0192 -0.09095,-0.04072 -0.134769,-0.06442 -0.0438,-0.02423 -0.0863,-0.05063 -0.12744,-0.07909 -0.04155,-0.02828 -0.08162,-0.05858 -0.120121,-0.09083 -0.02257,-0.01988 -0.04455,-0.04035 -0.06593,-0.0615 l -0.06593,-0.06593 c -0.02648,-0.02783 -0.0519,-0.05663 -0.07617,-0.08642 -0.03135,-0.03953 -0.06068,-0.08058 -0.08789,-0.123053 -0.02708,-0.04215 -0.05197,-0.08569 -0.0747,-0.130366 -0.02228,-0.0444 -0.0423,-0.08985 -0.06008,-0.136231 -0.01853,-0.0465 -0.03465,-0.09395 -0.04838,-0.142095 -0.0132,-0.04823 -0.02392,-0.09715 -0.03225,-0.146484 -0.0083,-0.0495 -0.01418,-0.09934 -0.01755,-0.149415 -0.003,-0.0351 -0.0045,-0.07028 -0.0045,-0.105466 1.5e-5,-0.04988 0.0022,-0.09976 0.0075,-0.149416 0.0045,-0.04965 0.01223,-0.09903 0.02197,-0.147953 0.0102,-0.04942 0.02295,-0.09833 0.0381,-0.146483 0.01478,-0.0477 0.03187,-0.09464 0.0513,-0.140626 0.0192,-0.04598 0.04072,-0.09095 0.06442,-0.134768 0.02423,-0.0438 0.05062,-0.0863 0.0791,-0.127441 0.02828,-0.04155 0.05858,-0.08162 0.09083,-0.12012 0.03233,-0.03833 0.06653,-0.075 0.102541,-0.109861 0.03547,-0.0345 0.0726,-0.06728 0.111323,-0.09815 0.03952,-0.03135 0.08058,-0.06068 0.123053,-0.08789 0.04215,-0.02707 0.08569,-0.05198 0.130366,-0.0747 0.0444,-0.02227 0.08985,-0.0423 0.13623,-0.06007 0.0465,-0.01845 0.09395,-0.03465 0.142096,-0.04838 0.04822,-0.0132 0.09715,-0.02393 0.146483,-0.03225 0.0495,-0.0083 0.09935,-0.01417 0.149416,-0.01755 0.03502,-0.0038 0.0702,-0.006 0.105465,-0.0075 z"
       class="ColorScheme-Text" />
    <rect
       id="rect4570"
       width="4"
       height="0.5"
       x="-13"
       y="25.5"
       rx="0.25"
       ry="0.25"
       style="opacity:0.5;stroke-width:0.57735"
       class="ColorScheme-Text"
       fill="currentColor" />
    <rect
       id="rect4574"
       width="16"
       height="16"
       x="-19"
       y="12.5"
       rx="0"
       ry="0"
       style="fill:none" />
    <path
       id="rect4702"
       d="m -13.5,13 c -1.107998,0 -2,0.892002 -2,2 v 11 c 0,1.107998 0.892002,2 2,2 h 5 c 1.1079978,0 2,-0.892002 2,-2 V 15 c 0,-1.107998 -0.8920022,-2 -2,-2 z m 0,1 h 1 c 0,0.277 0.223,0.5 0.5,0.5 h 2 c 0.2769994,0 0.5,-0.223 0.5,-0.5 h 1 c 0.3462489,0 0.6507226,0.173535 0.8300781,0.439453 C -7.5623086,14.599004 -7.5,14.792251 -7.5,15 v 11 c 0,0.553998 -0.4460012,1 -1,1 h -5 c -0.103875,0 -0.204775,-0.01579 -0.298828,-0.04492 -0.03135,-0.0097 -0.06187,-0.02059 -0.0918,-0.0332 C -14.249781,26.770468 -14.5,26.415498 -14.5,26 V 15 c 0,-0.03463 0.0025,-0.06786 0.0059,-0.101562 0.04082,-0.404384 0.319101,-0.73699 0.695313,-0.853516 0.03135,-0.0097 0.06505,-0.01875 0.09766,-0.02539 C -13.635957,14.006254 -13.56925,14 -13.5,14 Z"
       class="ColorScheme-Text"
       fill="currentColor" />
  </g>
</svg>
